<?xml version="1.0" encoding="UTF-8"?>
<svg xmlns="http://www.w3.org/2000/svg" viewBox="0 0 400 280" width="400" height="280" preserveAspectRatio="none">

  <!-- Far clouds — smaller, scattered across full height, lighter opacity -->

  <!-- Row 1 — near top -->
  <g fill="white" opacity="0.5">
    <ellipse cx="55"  cy="30"  rx="28" ry="14"/>
    <ellipse cx="72"  cy="20"  rx="22" ry="16"/>
    <ellipse cx="40"  cy="24"  rx="18" ry="13"/>
    <ellipse cx="88"  cy="28"  rx="16" ry="11"/>
  </g>

  <g fill="white" opacity="0.4">
    <ellipse cx="310" cy="22"  rx="32" ry="13"/>
    <ellipse cx="332" cy="12"  rx="24" ry="16"/>
    <ellipse cx="292" cy="17"  rx="20" ry="12"/>
    <ellipse cx="350" cy="20"  rx="17" ry="10"/>
  </g>

  <!-- Row 2 — upper middle -->
  <g fill="white" opacity="0.45">
    <ellipse cx="185" cy="90"  rx="30" ry="13"/>
    <ellipse cx="208" cy="80"  rx="23" ry="17"/>
    <ellipse cx="166" cy="85"  rx="19" ry="12"/>
    <ellipse cx="224" cy="88"  rx="16" ry="10"/>
  </g>

  <g fill="white" opacity="0.35">
    <ellipse cx="360" cy="95"  rx="25" ry="11"/>
    <ellipse cx="378" cy="86"  rx="18" ry="13"/>
    <ellipse cx="344" cy="91"  rx="15" ry="9"/>
  </g>

  <!-- Row 3 — middle -->
  <g fill="white" opacity="0.5">
    <ellipse cx="70"  cy="160" rx="34" ry="14"/>
    <ellipse cx="94"  cy="150" rx="26" ry="17"/>
    <ellipse cx="50"  cy="155" rx="20" ry="12"/>
    <ellipse cx="114" cy="158" rx="18" ry="11"/>
  </g>

  <g fill="white" opacity="0.4">
    <ellipse cx="280" cy="155" rx="29" ry="12"/>
    <ellipse cx="300" cy="145" rx="22" ry="15"/>
    <ellipse cx="262" cy="150" rx="18" ry="10"/>
    <ellipse cx="318" cy="153" rx="15" ry="9"/>
  </g>

  <!-- Row 4 — lower (just past halfway) -->
  <g fill="white" opacity="0.38">
    <ellipse cx="155" cy="230" rx="26" ry="11"/>
    <ellipse cx="174" cy="221" rx="20" ry="14"/>
    <ellipse cx="138" cy="226" rx="16" ry="10"/>
    <ellipse cx="190" cy="228" rx="14" ry="9"/>
  </g>

  <g fill="white" opacity="0.32">
    <ellipse cx="360" cy="240" rx="22" ry="10"/>
    <ellipse cx="376" cy="232" rx="17" ry="12"/>
    <ellipse cx="346" cy="237" rx="14" ry="8"/>
  </g>

</svg>

