<?xml version="1.0" encoding="UTF-8"?>
<svg xmlns="http://www.w3.org/2000/svg" viewBox="0 0 400 80" width="400" height="80">

  <!-- Solid ground fill -->
  <rect x="0" y="30" width="400" height="50" fill="#2E7D32"/>

  <!-- Back row of grass blades (darker, behind) -->
  <g fill="#1B5E20">
    <polygon points="8,38  12,10  16,38"/>
    <polygon points="22,36  27,14  32,36"/>
    <polygon points="40,37  44,8   49,37"/>
    <polygon points="60,38  65,18  70,38"/>
    <polygon points="78,36  82,6   87,36"/>
    <polygon points="98,37  103,16  108,37"/>
    <polygon points="118,38  122,11  127,38"/>
    <polygon points="138,36  143,20  148,36"/>
    <polygon points="155,38  160,7   165,38"/>
    <polygon points="175,37  180,14  185,37"/>
    <polygon points="198,36  202,10  207,36"/>
    <polygon points="218,38  223,18  228,38"/>
    <polygon points="238,37  242,5   247,37"/>
    <polygon points="258,38  263,15  268,38"/>
    <polygon points="278,36  283,9   288,36"/>
    <polygon points="300,37  305,19  310,37"/>
    <polygon points="318,38  322,12  327,38"/>
    <polygon points="338,36  343,7   348,36"/>
    <polygon points="358,37  362,16  367,37"/>
    <polygon points="378,38  383,11  388,38"/>
  </g>

  <!-- Front row of grass blades (lighter, in front) -->
  <g fill="#388E3C">
    <polygon points="0,40   5,15   10,40"/>
    <polygon points="15,40  20,22  25,40"/>
    <polygon points="30,40  36,9   42,40"/>
    <polygon points="50,40  55,20  60,40"/>
    <polygon points="68,40  73,5   79,40"/>
    <polygon points="87,40  91,17  96,40"/>
    <polygon points="105,40  110,12  116,40"/>
    <polygon points="125,40  130,24  135,40"/>
    <polygon points="143,40  148,8   154,40"/>
    <polygon points="163,40  168,19  173,40"/>
    <polygon points="182,40  186,13  191,40"/>
    <polygon points="200,40  205,4   211,40"/>
    <polygon points="220,40  225,21  230,40"/>
    <polygon points="240,40  244,11  249,40"/>
    <polygon points="258,40  263,23  268,40"/>
    <polygon points="276,40  281,7   287,40"/>
    <polygon points="295,40  300,16  306,40"/>
    <polygon points="315,40  319,10  324,40"/>
    <polygon points="334,40  339,20  344,40"/>
    <polygon points="352,40  357,6   363,40"/>
    <polygon points="371,40  376,18  381,40"/>
    <polygon points="390,40  395,13  400,40"/>
  </g>

  <!-- Brightest front fringe (tallest, most visible blades) -->
  <g fill="#43A047">
    <polygon points="3,40   7,2    13,40"/>
    <polygon points="35,40  39,18  44,40"/>
    <polygon points="72,40  77,8   83,40"/>
    <polygon points="112,40  117,14  123,40"/>
    <polygon points="150,40  155,1  161,40"/>
    <polygon points="192,40  196,16  202,40"/>
    <polygon points="230,40  235,6   241,40"/>
    <polygon points="268,40  273,20  279,40"/>
    <polygon points="308,40  313,3   319,40"/>
    <polygon points="348,40  353,15  359,40"/>
    <polygon points="388,40  393,9   400,40"/>
  </g>

</svg>

